# xmcd CD database file
#
# Track frame offsets:
#	150
#	23136
#	42853
#	61975
#	88757
#	110608
#	124219
#	144791
#	182713
#	205899
#	234243
#
# Disc length: 3345 seconds
#
# Revision: 0
# Processed by: cddbd v1.5.2PL0 Copyright (c) Steve Scherf et al.
# Submitted via: CDex 1.51
#
DISCID=900d0f0b
DTITLE=Bob Holroyd - RE: Told
DYEAR=2010
DGENRE=New Age
TTITLE0=Kosovo (Bob Holroyd Remix)
TTITLE1=Blue Camel Haze
TTITLE2=The Past Remains (Plastic Bag Remix)
TTITLE3=Obatala (Bob Holroyd Strolling Remix)
TTITLE4=A Year In A Day
TTITLE5=Gondwana (Atmos Mix)
TTITLE6=Amka
TTITLE7=Overland (Remix)
TTITLE8=Dark Waters (Hippy Trippy Remix)
TTITLE9=Rafiki (Rise Ashen Future Tribal Mix)
TTITLE10=Chance Encounter
EXTD=YEAR: 2010
EXTT0=
EXTT1=
EXTT2=
EXTT3=
EXTT4=
EXTT5=
EXTT6=
EXTT7=
EXTT8=
EXTT9=
EXTT10=
PLAYORDER=
